<?xml version="1.0" encoding="utf-8"?>
<!-- Generator: Adobe Illustrator 24.1.1, SVG Export Plug-In . SVG Version: 6.00 Build 0)  -->
<svg version="1.1" id="westSwitzerlandMap" xmlns="http://www.w3.org/2000/svg" xmlns:xlink="http://www.w3.org/1999/xlink" x="0px"
     y="0px" viewBox="0 0 378.5 361.9" style="enable-background:new 0 0 378.5 361.9;" xml:space="preserve">
<style type="text/css">
    .st0{fill:#76CCF4;stroke:#1D1D1B;stroke-miterlimit:10;}
    .st1{fill:#FFFFFF;stroke:#1D1D1B;stroke-miterlimit:10;}
    .st2{fill:#47BFEF;stroke:#1D1D1B;stroke-miterlimit:10;}
    .st3{font-family:'ArialMT';}
    .st4{font-size:12px;}
    .st5{display:none;enable-background:new    ;}
    .st6{display:none;}
    .st7{display:inline;}
    .st8{fill:#1D1D1B;}
    .st9{font-family:'MyriadPro-Regular';}
    .st10{display:none;fill:#1D1D1B;enable-background:new    ;}
    .st11{font-size:11.9742px;}
    .st12{fill:#E41D13;}
</style>
<g id="lac-leman">
    <polygon class="st0" points="24.9,287.7 33.9,250.7 41.9,236.7 78.9,215.7 102.9,215.7 132.9,225.7 149.9,236.7 144.9,248.7 
        132.9,250.7 116.9,246.7 79.9,250.7 66.9,257.7 49.9,263.7 39.9,269.7 36.9,280.7 29.9,289.7 	"/>
    <path class="st1" d="M42.3,271.6c-0.6-0.7-1.8-2-0.5-2.6c1.5-0.7,1.1-2.8,0.6-4.2c1.5-0.6,1.3-3.4,1.9-4.5c1.2-1.1,2.1-2.5,2.6-4
        c0.4-0.9,0-1.3,0.9-2c1.2-0.9,2.6-3.2,4.1-3.3c0.9-0.1,1.4-0.9,2.3-0.9s1.6,0.4,2.5,0.2c1.9,0.2,1.1,1.5,2,2.8
        c1.1,1.8,2.9,3.1,5,3.5c0.9,0.2,2.5-2.9,3.4-3.4c1.3-0.8,2.7-0.5,4.1-1.2c2.1-1.1,5.3-2.1,6.8-3.9c0.8-1,0.2-1.6,0.4-2.7
        s2.5-1.7,3.3-2.2c0.8-0.2,1.7-0.2,2.5-0.2l0.2,0.2c0,0.2,0.7,0.7,0.9,0.7c0.9,1.5,4.1,0.9,5.3,0.4c3.5-1.4,7.3-1.3,11-1.8
        c3.5-0.5,8,0.3,11.3-0.5c2.2,0.2,4.4,0.7,6.5,1.5c1.5,0.7,3,1.2,4.5,1.6c0.6,0.1,2.9-0.2,3-0.1l-0.6,1.8c0.5,1.5,0.7,1.6-0.7,2.7"
        />
</g>
<path id="canton-jura" class="st1" d="M205.1,14l0.5,1.7c0.4,0.6,1,1.2,1.7,1.5c0.6,0.2,1.1,0.4,1.6,0.7c0.3,0.2,0.4,0.6,0.6,0.8
    c1,1.3,2,1,3.3,1.3l0,0l2.1,2.3c0.6,0.2,0.5,0.7,1,1c0.8,0.6,1.7,0.5,2.5,0.8c0.3,0.1,0.1,1.3,0,1.6c-0.9,3,2.2,1.7,4,2l0,0
    c0.9,0.4,1.7,0.9,2.6,1.4s4.3,1.3,5.1,0.9c1.4-0.5,2.2-1.5,3.8-1.4c0.8,0,2,0.5,1.5,1.4c-1,1.7,1.6,0.8,2,2c0.2,0.6-0.5,1-0.5,1.6
    s0.8,1.5,1.3,1.4l1.7,0.4l0,0c-0.5,0.4-0.8,1.1-1.3,1.5c-0.5,0.3-1,0.6-1.5,0.8c-0.7,0.3-1.7,1.6-1.4,2.4c0.2,0.5,1.3,0.5,1.7,0.5
    c0.8-0.1,1.7,0,2.5,0.3l0,0l-5.2,1.5c-1.2,0.7-5,3.7-6.3,2.1s-5.9-1.1-7.8-0.8c-1.2,0.2-1.1-0.5-2-0.9c-1.1-0.5-5-1.5-5.9-0.9
    c-1.2,0.8-1.8,1.8-3.4,2c-1.4,0.5-2.1,0.4-3.4,1.3c-0.9,0.6-1.2,2.1-2.1,2.6c-1.4,0.7-6,1.3-7.4,0.7c-1.2-0.5-2.7,0.2-4.2-0.2
    c-1.8-0.4-4.7,0.5-4.7-1.9c-0.2-0.2-1,0-1.2,0.1c-0.5,0.2-6.4-0.8-4.9,1.5c0.7,1.2,0.4,2.7-0.8,3.4c-0.2,0.1-0.4,0.2-0.7,0.3
    c-1.8,0.6-0.7,1.5-1.4,2c-0.5,0.4-1.3,0.4-0.3,1.2c0.5,0.4,1.1,0.2,1.1,1.2c0,2.3-3.6,2.1-5.2,2c-0.7,0-0.8-0.7-1.4-0.5
    c-1.2,0.3-2.1,2.3-3.4,1.3c-1.1-0.9-2-1-3.7-0.2c-1.1,0.5,0,1.2-0.5,1.9c-1.3,1.6-2.7,1.1-2.9,3.9c-1,2.1-1.6,4.7-4.4,4.7
    c-3.5,0-1.5,1.3-3.3,3.3c-3,3.4-4-4.9-7.3-0.1c-1.5,2.3-3.5,4.1-6,5.3c-3.7,1.6-3.5-0.9-4.2-3.8l-1.8,1.7l0,0
    c-0.1-0.1-0.2-0.2-0.4-0.3c-1.2-0.5-3.5-0.3-2.4-1.9c0.7-1.1,3.6-0.8,4.3-2.2c0.4-0.8,0.3-1.7,0.9-2.4s1.8-1,2.5-1.9
    c1.1-1.4,3.7-2,4.4-3.7s0.7-1.7,1.9-2.5c0.9-0.6,0.6-2,1.5-2.3c0.5-0.2,0.8-0.6,0.9-1.1c-0.1-1.3-1.1-0.3-0.2-2.1
    c0.1-0.6,0.1-1.2-0.1-1.7c-0.3-1.2-1.4-3.5-1.2-4.7c0.5-3.1,3.3-1.4,5.4-1.9c1.4-0.3,2.9-0.7,4.3-1l1.1-2.8c0.2-0.9,0.7-3.5,1.8-3.9
    s4.8,0.9,4.8-1.4c0-2.5-0.4-6.4-3.1-6.8c-1.4-0.2-0.7-0.8-1.2-1.1s-1.6-0.1-2.3-0.7c-0.6-0.4-1.5,1.2-1.9,1.6
    c-1.3,1.3-2.7,0.9-4.4,0.9c-2.4,0.1-4.8,0.5-7.1,1.2c-1.1,0.3-1.7-0.4-2.7-0.4s-4.6,2.6-4.1,0.3c0-2.1,0.3-4.6,2.7-5.3
    c3.4-1.1,1-2.8,3.1-4.5c1.5-1.2,3.6-1,4-3.6c0.3-1.8-1.4-4.4,1.8-3.9c1.6,0.3,2.4-1.1,2.8-2.4s2.2-0.6,3.4-0.9
    c2.3-1.7,0.4-3.7-0.9-5.1c-0.5-0.5-0.4-4.4,0.2-5c4.2-3.9,7.5-0.3,11.9,1.3c2.7,1,8.1-4.2,10-3.1l4.3,2.5c2.4,1.4,3.4-0.9,5.3-0.9
    c0,1.3-1.2,2.1-1.9,3c-0.7,1.2-1.3,2.5-1.8,3.8c0,1.3,0.5,4.3-1,5c0,0.3,1.7,0.4,2,0.4c0.9-0.1,1.8,0.2,2.5,0.7
    c1.9,1.4,3.8-1.7,5,0.1c0.6,0.8,1.5,1.7,1.5,2.8c0,1.8,1.8,0.4,2.8-0.2c1.8-1.1,4.6-1.6,6.2-2.8C202.9,14.4,204,14.1,205.1,14
    L205.1,14z"/>
<path id="canton-neuchatel" class="st1" d="M135.2,75.4l4.2,7.8c0,1.4-1.5,4.3-2.4,5.4c-1,1.3-1,2.8-1,4.4c0.1,0,0.1,0,0.1-0.1
    c0.9,0,3.4-2.2,4.4-2.6c3.1-1.4,6-3.3,9.5-3.8c2.8-0.4,4.4-0.5,6.8-1.8c0.9-0.5,1.8-0.1,2.9-0.7c2.1-1.1,2.4,0.1,0.8,1.4
    c-1.3,1.1-0.6,1.8-0.6,3.3c0.8,0.2,1.2-0.6,1.9-0.7c1.8-0.3,1.8,1.1,3.1,1.5c1.5,0.5,4.5,1.5,3.5,3.8c-0.8,1.9-1,1.8,0,3.7
    c1.4,2.7-0.9,4.1-3.3,4.9c-3.4,1.1-3.8,2.5-4,5.9l-0.1,1.3l-1.2,1.5l2,5.8l0,0l-5.3-1.6l-11.2,7.5l-4.9,6.1l-4.5,3.3l0,0l-13.1,12.5
    l0,0l-5.3-4.8c-1.4-0.9-1-2-1-3.4c0-1.7-0.9-2.1-2.2-2.9c-2.9-1.9,1.2-6.4,0-6.9s-5,2-6,2.6c-2.8,1.5-4.8,2.8-6.5,5.5
    c-0.8,1.5-2.2,2.5-3.9,2.6c-1.8,1.2-3.8,0.1-5.5,1.3c-1.5,1.1-3.6,1.7-5.1,2.8c-0.9,0.6-1.5,1.7-2.4,2.4c-1.1,0.9-2.4,0.7-3.6,1.4
    c-1.5,0.8-3.3,1.5-5,1l-2-1.1l0,0c0.3-1,0.4-2.1,0.5-3.1c0.2-1.5-0.1-5,0.7-6.2l-2.7-4.9c-0.6-1.1-2.6-1.9-1.2-2.9
    c2.7-2,3.8-5.6,6.4-7.5c2.2-1.6,1-2.9,3.3-1.1c0.6,0.5,1.5-0.2,2.1-0.5c3-1.5,6.7-1.3,9.7-3.2c1.7-1,1.2-1.7,3.2-1.8
    c1.5-0.1,3.7,0,4.7-1.2c1-0.7,1.7-1.6,2.2-2.7c0.2-0.8,0.4-1.6,0.7-2.4c0.9-1.5,2.4-2.7,4.1-3.1c1.2-0.3,2-0.3,2.8-1.2
    c0.5-0.5,3-2.1,3-2.6c-1-0.2-3.5-2.6-4-3.5c0.8-0.5,2.3-0.9,2.1-1.8s-0.3-1.6,0.4-2.1c0.1-0.1,0.3-0.2,0.4-0.2
    c1-1.1,4.4,1.1,4.6-0.7s-1.2-3.6,0.6-4.4c1.1-0.5,1.9-1.5,3.2-1.9c1.4-0.4,2.8-1,4.1-1.7c0.9-0.5,1.4-1.5,2.2-1.8
    c0.4-0.2,3.6-2.8,4.2-3.3C132.2,78.2,135.9,76.4,135.2,75.4L135.2,75.4z"/>
<path id="canton-fribourg" class="st1" d="M118.7,170.3c0.7-0.6,1.2-1.3,1.5-2.2c0.6-0.6,1.2-1.1,2-1.5c0.4-0.2,1.2-0.2,1.4,0.3
    c0.1,0.4,0.1,0.7,0.1,1.1c0,0.4,0.2,0.7,0.1,1.1c-0.2,0.8-0.9,1.4-1.2,2.2c-0.5,1.2-1,2.3-2.4,2.6c-0.4,0.1-0.9-0.7-1.1-1.1
    c-0.4-0.8-1.3-0.9-0.8-1.9L118.7,170.3L118.7,170.3z M125.6,170.1c2.6-0.6,3.1-1.3,4.4-3.4c0.7-1.1,1.9-2.1,2.7-3.3
    c1.7-2.8,2.7,1.9,4.4,2.6c2.3,1,0.1,2.9-0.7,4.2c-0.5,0.9-1.4,3-2.7,2.7s-1.2-1.9-2.1-2.3c-1.4-0.7-2.6,0.7-3.8,1.5
    c-0.6,0.3-1.3,0.5-2,0.4c-1.3-0.1-0.8-0.8-1-1.6L125.6,170.1L125.6,170.1z M173.9,132.7c0.3-0.3,0-1.2,0.1-1.6
    c-0.1-1.1,0.7-2,1.7-2.2c0.9,0,1.2,0.7,1.5,1.4c0.2,0.5,0.6,0.7,0.2,1.2c-0.3,0.3-0.8,0.4-1.2,0.7s-0.8,0.6-1.1,1
    c-0.1,0.2-0.4,0.3-0.6,0.3c-0.2,0-0.7-0.2-0.6-0.4L173.9,132.7L173.9,132.7z M122.9,144.2l-5.8,5.6l5.9,6.3c0.7,0.8-0.3,0.5-0.3,1.3
    c0,0.6,0.9,0.1,1.3,0.4c0.2,0.4,0.4,0.7,0.6,1.1c0.3,0.6,1.4-0.1,2.1,0.3c0.5,0.3,0.7,0.8,1.1,1.2c1,0.9,2.1,0.7,3.3,0.4
    c1-0.4,1.8-1,2.6-1.7c1-0.7,1.6,1,3,1.4c2,0.5,3.4,0.6,5-1c1.3-1.4,3.9-3.2,3.9-5.2c-0.7-0.4-1.9,0.4-2.6,0.6
    c-1.2,0.2-0.7-3.1-1.1-4.2c-0.7-2.1,1-3.9,2.2-5.5c1.2-1.1,1.7-3.8-0.7-3.4c-1,0.2-2.5,0.8-3.3-0.3c-0.6-0.8,2.3-0.7,2.8-0.9
    c1.3-0.7,0.5-2.2-0.6-2.5c-0.7-0.2-1.3-0.5-1.9-0.9c-1-0.7-1.2-1.5-2.1-2.3l-2.3-3.2l0,0L122.9,144.2L122.9,144.2z M140.5,128.3
    L140.5,128.3l4.8,5.6c-0.3,0.4-0.7,1.5-0.3,2s1.1,0.2,1.6,0.4c0.9,0.5,0.9,1.1,1.5,1.9c0.2,0.3,1.1,1.1,1.5,0.8
    c0.6-0.5,0.2-2.7,2-2.2c0.9,0.3,1.7,0.9,2.3,1.6c0.7,1.3-1.1,3.5-1.4,4.8c-0.3,0.8-0.3,1.6-0.1,2.4c0.4,0.9,1.5-1,2.2-0.8
    c0.2,1.1-1.5,1.5-0.6,2.7c0.8,1,1.2,1.8,0.1,3c-0.3,1.6-2.2,0.2-2.5-0.7c-0.8,0-2.6,2.4-2.2,3.3s1.8,1.6,0.8,2.7
    c-0.6,0.7-0.5,1.1-0.6,2c-0.1,0.7-0.9,1.2-1.5,1.4c-1,0.3-1.8,1.1-1.9,2.2c-0.2,1.1-1.1,1.4-1.8,2.1c-0.7,0.5-3,2.7-0.6,2.7
    c1.2,0,2.3-0.7,2.5,0.8c0.3,2.3,0.7,3-1.2,4.5c-0.5,0.4-1,1.1-1.6,1.7l-2.8,2.9c-0.8,0.8-0.6,1.3-0.5,2.3c-0.6,1-1.4,2-2.3,2.8
    c-1.4,0.5-3.4-0.6-2.1,2c0,0.1,0.5,0.5,0.6,0.6c0,0.5-0.4,0.7-0.5,1.2c-0.2,1,0.2,1.9-1.1,2.3s-1.3,0.8-2.4-0.3
    c-0.8-0.5-1.7-0.7-2.6-0.3c-1.3,0.6,0.2,3.1-1.7,2.7c-0.5-0.1-2.1-1-2.1,0.1c0,0.7,0.6,0.6-0.1,1.5c-0.8,1.1-0.9,1.7,0.1,2.8
    c0.5,1.4,0.6,3,0.4,4.5c-0.4,1.5,0.1,4.1-0.6,5.3c-0.2,0.3-0.7,2,0.2,1.6c1.3-0.6,0.9-1,1.8-1.9s1.3,3.2,2.3,2.4
    c1.2-0.9,2.1-3.1,3.8-1.9l1.7,1.2c1,0.6,0.5,2.4,2.3,2c0.7-0.1,2-1.2,2.2-0.5c0.1,0.4,1.2,1.6,0.6,1.9c-1.7,0.8-2.7,1.2-3.5,3
    c-1,2.1-2.1,0.4-3.3,1.4c-0.5,0.5-1.2,0.8-1.9,0.9c-1.7,0.4-1.9-2.6-3.2-0.5c-0.9,1.4-1.7,2.8-0.9,4.5c1.1,1.1,2.1,1,2.6,2.8
    c0.3,1.2,1.2,1.2,1.8,2c2.9,3.8,5.9-4.7,8-4.7l0.1,0.1c0,0.4-0.2,2.3,0,2.4h0.2c1.8-1.8,3-0.3,4.7,0.7s6.3-0.3,6.4,3.1
    c0.1,1.4,1.7,2.5,1.7,2.9c-0.1,1.3-1.5,2.8,0,4.1c1.6,1,1.3,1.9,0.5,3.3c-0.9,1.7,0.7,1.3,1.5,0.5c1.1-1.2,3.9-1,3.4-3.2
    c-0.4-1.9,2.7-4.3,3.9-5.3c1.3-0.7,1.3-1.6,2.1-2.4c0.3-0.3,1.5,0.6,1.9,0.6l4.5-0.3c2.3-0.2,5.5-3.8,5.9-6.2
    c0.6-3.8,1.4-1.6,3.5-2.8s4.3-6,5.4-1.8c0.4,1.4,1.8,0.6,2.3-0.2c0.8-1.3,1.8-2.4,3.1-3.3l0,0l2.5-1.1c1.1-1,2.1-2,3.1-3.1
    c0.4-0.5,1.6-2.9,2.3-2.4s1.3,1.3,2.2,1.1c0.5-0.1,0.9-2.2,2-2.7c0.7-0.3,0.3-1.1,0.3-1.7c0-1.2,0-2.4,0.2-3.6
    c0.2-1.2-1.3-1.3-1.3-2.6c0-0.6,0.2-1.2,0.2-1.8s1.9-0.4,2.3-0.6c2-0.7-0.9-3-0.8-3.5c0.1-0.8,3.5,0.4,4.1,0.4s0.5,1.8,1.1,2.3
    c1,0.8,1.2-1.7,1.3-2c0.4-0.7,1-0.9,1.5-1.4c0.3-0.4-0.7-1.2-0.9-1.6c0.1-1.7,0.5-3.4,1.2-5c1.1-2.1-1.3-0.8-1.8-2
    c-0.5-1-1.1-0.5-2-0.7s0.1-2.3-0.1-2.9c-0.3-0.9-4-1.2-4.7-1.1c-1.6,0-1.2,0.7-2.1-0.7c-0.5-0.8-0.8-2-1.3-2.8
    c-0.8-1.3,0.5-1.8,1-2.8c0.1-2.5,0.1-3.1-1.3-5.1c-1-1.4,1.2-2.6,1.4-3.7l0.6-3.5c0.2-1.5,1.6-2.5,1.9-3.8c0.2-0.8-0.1-1.2,0.6-1.7
    c1.1-0.8,1-1.1,0.2-2.3c-0.7-1.4-4.1-1.8-3.1-3.1c0.7-1.1,1.9-1.7,3.2-1.8c0.9,0.1-0.3,1.6,0.5,2c1.5,0.7,2.5,0.1,3.3-1.1
    c1.4-2,0.8-3.2,0.5-5.4c-0.5-3.5-4.1-1.6-6.7-2.7c-2.1-0.9-3.2,0.2-5.2-0.1c-0.9-0.1-1.4-0.8-2.5-0.9s-2.1,0.2-3-0.6
    c-1.8-1.7-5.4,1.3-5.4-1.1c0-0.8,0.2-1.6,0.4-2.3c-0.9-1.1,0.7-3,2.1-2.3c2.1,1,1.7-2.4,1.7-3.2c-0.8-0.6-5.6,2.5-3.6-1.1
    c1.4-2.5-2-3.4,1-5.6c1-0.8,2.4-2.3,1.9-3.7c-0.3-0.9-1-4.2-1.6-4.8c-1.9,0-5.7,3.3-7.6,4.2c-3,1.3-6.2,2.1-9.5,2.4
    c-1.8,0.2-5,0.2-6.7,0.8l0,0l0.2,2.4c0,0.3,0.1,0.4-0.1,0.7c-0.2,0.9-0.2,1.8,0.2,2.7c0.1,0.3-0.3,0.8-0.4,1
    c-0.2,0.6-0.2,1.1-0.2,1.7l5.4,7.6l0,0l0.7,0.3c0.3,0.1,0.3,0.6,0.3,0.9s-0.7,0.8-1,1.1s-0.5,0.6-0.9,0.5s-0.4-0.7-0.4-1.1h-0.9
    c-1.1,0-0.8,2.5-1.7,3.1c-0.1,0.1-1,0.5-0.7,0.7c1.7,1.5,0.3,2.2-0.7,3.5c-0.8,1-1.7,2.8-2.6,3.6c-1,1-2.1-1.2-1.9-1.9
    c0.1-0.5,1.2-1.4,1.1-1.7c-0.2-0.7-1.2-0.9-0.7-1.7c0.7-1.2,0.7-1.4-0.9-1.9c-1.2-0.4-3.3,0.5-4-0.7c-0.3-0.4-0.5-0.9,0.2-1.1
    c1.6-0.5-0.1-2.1-0.8-2.6s-2.4-2.5-2.1-3.4s1-1.6-0.1-2.1s-1.9,1-2.6-0.5l-5.3-6.2l0,0L140.5,128.3z"/>
<path id="canton-vaud" class="st1" d="M118.7,170.3c0.7-0.6,1.2-1.3,1.5-2.2c0.6-0.6,1.2-1.1,2-1.5c0.4-0.2,1.2-0.2,1.4,0.3
    c0.1,0.4,0.1,0.7,0.1,1.1c0,0.4,0.2,0.7,0.1,1.1c-0.2,0.8-0.9,1.4-1.2,2.2c-0.5,1.2-1,2.3-2.4,2.6c-0.4,0.1-0.9-0.7-1.1-1.1
    c-0.4-0.8-1.3-0.9-0.8-1.9L118.7,170.3L118.7,170.3z M125.6,170.1c2.6-0.6,3.1-1.3,4.4-3.4c0.7-1.1,1.9-2.1,2.7-3.3
    c1.7-2.8,2.7,1.9,4.4,2.6c2.3,1,0.1,2.9-0.7,4.2c-0.5,0.9-1.4,3-2.7,2.7s-1.2-1.9-2.1-2.3c-1.4-0.7-2.6,0.7-3.8,1.5
    c-0.6,0.3-1.3,0.5-2,0.4c-1.3-0.1-0.8-0.8-1-1.6L125.6,170.1L125.6,170.1z M145.4,122.2l11.2-7.5l5.3,1.6l0,0l3.2,0.8l0,0l0.2,2.4
    c0,0.3,0.1,0.4-0.1,0.7c-0.2,0.9-0.2,1.8,0.2,2.7c0.1,0.3-0.3,0.8-0.4,1c-0.2,0.6-0.2,1.1-0.2,1.7l5.4,7.6l0,0l-1.3,1.7H168
    c-1.1,0-0.8,2.5-1.7,3.1c-0.1,0.1-1,0.5-0.7,0.7c1.7,1.5,0.3,2.2-0.7,3.5c-0.8,1-1.7,2.8-2.6,3.6c-1,1-2.1-1.2-1.9-1.9
    c0.1-0.5,1.2-1.4,1.1-1.7c-0.2-0.7-1.2-0.9-0.7-1.7c0.7-1.2,0.7-1.4-0.9-1.9c-1.2-0.4-3.3,0.5-4-0.7c-0.3-0.4-0.5-0.9,0.2-1.1
    c1.6-0.5-0.1-2.1-0.8-2.6s-2.4-2.5-2.1-3.4s1-1.6-0.1-2.1s-1.9,1-2.6-0.5L145.4,122.2L145.4,122.2z M32.4,255.8
    c-0.1-0.1-0.1-0.1-0.1-0.2c-0.3-0.3-0.8-0.3-1.2-0.1c-0.4,0.2-0.8,1.4-0.1,1.4c0.4,0,0.7-0.2,1.1-0.2c0.2,0,0.3,0,0.5-0.1
    C32.9,256.3,32.6,256,32.4,255.8L32.4,255.8z M37.1,254.1c0.3-0.6,0.7-1.1,1.1-1.6c1.5-1.8,2.9-4.3,4.7-5.8c0.9-0.7,1.3-1.7,2.7-1.1
    c1.2,0.5,1.9,0,2.4-1.5c0-0.7-0.6-1.3-0.6-1.8c1.5,0,1.8-2.8,1.8-3.8c2.1,0,2.2-1.4,3.4-2.8c0.3-0.3,0.7-1.5,0.9-1.6
    c0.9-0.2,1.8-0.8,2.4-1.5c0.7-0.7,0.2-1.5,1.5-1.8s3-1.1,4.3-1.2s2.5,1.5,3.6,1c1.7,0.2,1.8-0.8,3.1-1.3c1.9-0.7,3.7-1.5,5.4-2.5
    c0.4-0.2,1.2,0.2,1.3-0.5c-0.1-1.2,0.7-2.2,1.8-2.5c1.3-0.3,0.8-0.3,1.4-1.4c0.3-0.5,0.7-0.9,1.2-1.2c0.9-0.6,1.1-1.8,2.1-2.3
    c1.3-0.5,2.7-0.4,3.9,0.3c1.4,0.8,2.7,1.7,4.6,1V220c0.3-0.1,0.3-0.9,1-0.9c1.1,0,1.4-1.1,2.3-1.1c0.7-0.1,1.5,0.2,1.8,0.9
    c0.1,0.3,2.7,0.7,3.5,1.5c1.2,1.2,1.1-0.6,2.2,0.1c1.4,0.8,3.4,0.1,5.3,0.7l3.3,1c1.3,0.4,2.1,1.4,3.3,2c0.8,0,1.9,1,2.6,0.8
    c1.9-0.7,1.8-1.3,3.3,0.4c2.3,2.5,5,1.3,7.4,2.7c0.9,0.5,4.9,0.9,4.9,1.4c0.2,2.1,1.7,0.8,2.9,1.9c0.5,0.5,0.4,1.9,1,1.9
    c0.8,0,1.6,0.1,2.3,0.3c0.4,0.1,0.4,0.6,0.6,0.9c0.9,1.2,3.4-0.1,4,1.3c0.2,0.4,0.4,1.3,0.6,1.6c0.4,0.4,1.4-0.1,1.5,0
    s0.2,0.7,0.3,0.9c0.1,0.4,0.3,0.7,0.6,0.9c0.2,0.2-0.1,0.4,0,0.6c0.3,0.9,1.2,2,0.4,2.9c-0.6,0.6-0.5,1.3-0.9,1.8s-2.6,0.1-3.1,0
    h-0.5c-0.8,0-5.5,0.5-5.7-0.1h-0.3l2.8,3.3c0.3,0.2,0.7,0.7,0.9,0.8c0.3,1.8-0.1,3.2,0.1,4.9c0.4,0.6,0.8,1.4,1,2.1
    c1.3,2.5,3.2,0.5,4.8,1.6s1.3,4.5,1.6,6.2c0.2,1.2-0.3,2,0.7,3s2.1,1.3,3.1,2.3c0.7,1.3,0.6,2.7,1.2,4c0.5,1,1.2,1.8,2,2.6
    c2.4,2.8,3.3,6.3,4.3,9.8c1.1,1.5,2.3,2.6,3.3,4.2s1.8,0.2,3.2-0.3c1.1-0.4,2.4-2.1,3.5-1.9c0.8,0.1,1,0.5,1.8,0l3.5-2.6
    c0.6-0.4,1.1-0.8,1.5-1.4c0.5-0.7,0.3-1.7,0.7-2.5c0.1-1.5,1-1,2-1.3c2.1-0.8,2.1-2.6,3.9-3.9c1.4-1,1.4-2.4,3-3.1s1.2-0.9,0.6-2.2
    c-0.7-1.6,2-0.8,0.7-3.1c-1.2-2,0.4-4,1.9-5.2l2.3-2.6l0,0l0.5-3.1c-0.1-1.3,0.1-2.6,0.4-3.9c0.4-2.1-1.3-0.1-2.1-0.7
    c-0.6-0.6-0.9-1.4-0.9-2.3c-0.4-1.7-1.4-0.9-1.7-1.3c-0.5-0.9,0.9-3.2,1.3-4c0.6-1.4,1-4,0.1-5.3s-1.5-1.4-1.6-3.2
    c1.1-1.5,3.2,0.4,4.5-0.9c0.7-1.1,1-2.3,0.8-3.6c-0.3-0.7,0.1-1.8-0.1-2.6c-0.3-1.6-1.1-2-0.3-3.8s2.4-2.2,3.1-4
    c0.8-2.1-0.2-5.5-0.7-7.5l-1-3l0,0c-1.3,0.9-2.3,2-3.1,3.3c-0.5,0.8-1.9,1.5-2.3,0.2c-1.2-4.2-3.2,0.5-5.4,1.8s-3-1-3.5,2.8
    c-0.4,2.4-3.6,6-5.9,6.2l-4.5,0.3c-0.5,0-1.6-0.9-1.9-0.6c-0.9,0.9-0.8,1.8-2.1,2.4c-1.2,1-4.3,3.4-3.9,5.3c0.5,2.1-2.3,2-3.4,3.2
    c-0.8,0.8-2.4,1.2-1.5-0.5c0.7-1.4,1.1-2.4-0.5-3.3c-1.4-1.3,0-2.8,0-4.1c0-0.4-1.6-1.5-1.7-2.9c-0.1-3.4-4.6-2-6.4-3.1
    s-3-2.5-4.7-0.7h-0.2c-0.2-0.2,0.1-2,0-2.4l-0.1-0.1c-2.1,0-5.1,8.6-8,4.7c-0.7-0.9-1.5-0.9-1.8-2c-0.5-1.7-1.5-1.7-2.6-2.8
    c-0.8-1.6,0.1-3.1,0.9-4.5c1.3-2.1,1.5,0.9,3.2,0.5c0.7-0.2,1.3-0.5,1.9-0.9c1.2-0.9,2.3,0.7,3.3-1.4c0.9-1.8,1.9-2.2,3.5-3
    c0.6-0.3-0.5-1.5-0.6-1.9c-0.2-0.7-1.6,0.4-2.2,0.5c-1.8,0.4-1.3-1.4-2.3-2l-1.7-1.2c-1.8-1.2-2.7,1-3.8,1.9s-1.3-3.4-2.3-2.4
    s-0.6,1.3-1.8,1.9c-1,0.4-0.4-1.3-0.2-1.6c0.8-1.2,0.2-3.9,0.6-5.3c0.3-0.5,0.1-4-0.4-4.5c-0.9-1.1-0.8-1.7-0.1-2.8
    c0.7-0.9,0-0.9,0.1-1.5c0.1-1.1,1.6-0.2,2.1-0.1c1.9,0.5,0.4-2.1,1.7-2.7c0.9-0.4,1.8-0.2,2.6,0.3c1.1,1.1,1.1,0.7,2.4,0.3
    s0.8-1.3,1.1-2.3c0.1-0.5,0.5-0.7,0.5-1.2c-0.1-0.1-0.6-0.5-0.6-0.6c-1.3-2.6,0.7-1.5,2.1-2c0.9-0.8,1.7-1.8,2.3-2.8
    c-0.1-1-0.4-1.4,0.5-2.3l2.9-2.8c0.5-0.6,1-1.2,1.6-1.7c2-1.5,1.6-2.1,1.2-4.5c-0.2-1.5-1.3-0.8-2.5-0.8c-2.4,0-0.1-2.1,0.6-2.7
    s1.6-1,1.8-2.1c0.1-1.1,0.9-1.9,1.9-2.2c0.6-0.2,1.5-0.7,1.5-1.4c0.1-0.9,0-1.3,0.6-2c1-1.1-0.4-1.8-0.8-2.7s1.4-3.3,2.2-3.3
    c0.3,0.8,2.1,2.3,2.5,0.7c1.1-1.1,0.8-2-0.1-3c-0.9-1.2,0.8-1.6,0.6-2.7c-0.7-0.2-1.8,1.7-2.2,0.8c-0.3-0.8-0.2-1.6,0.1-2.4
    c0.3-1.3,2.1-3.5,1.4-4.8c-0.6-0.7-1.4-1.3-2.3-1.6c-1.8-0.5-1.3,1.7-2,2.2c-0.4,0.3-1.2-0.5-1.5-0.8c-0.6-0.8-0.6-1.4-1.5-1.9
    c-0.5-0.3-1.3,0-1.6-0.4s-0.1-1.5,0.3-2l-4.8-5.6l0,0l-4.5,3.3l0,0l2.3,3.2c0.8,0.8,1.1,1.6,2.1,2.3c0.6,0.4,1.2,0.7,1.9,0.9
    c1.1,0.3,1.9,1.8,0.6,2.5c-0.4,0.2-3.3,0.1-2.8,0.9c0.8,1.1,2.2,0.5,3.3,0.3c2.4-0.5,1.9,2.2,0.7,3.4c-1.2,1.6-2.8,3.4-2.2,5.5
    c0.3,1.1-0.1,4.4,1.1,4.2c0.8-0.1,2-1,2.6-0.6c0,2-2.6,3.9-3.9,5.2c-1.6,1.7-3,1.6-5,1c-1.4-0.4-2-2.1-3-1.4
    c-0.8,0.7-1.6,1.3-2.6,1.7c-1.2,0.3-2.3,0.5-3.3-0.4c-0.5-0.4-0.6-0.9-1.1-1.2c-0.7-0.5-1.8,0.3-2.1-0.3c-0.2-0.4-0.4-0.7-0.6-1.1
    c-0.4-0.2-1.4,0.3-1.3-0.4s1-0.5,0.3-1.3l-5.9-6.3l5.8-5.6l0,0l-5.3-4.8c-1.4-0.9-1-2-1-3.4c0-1.7-0.9-2.1-2.2-2.9
    c-2.9-1.9,1.2-6.4,0-6.9s-5,2-6,2.6c-2.8,1.5-4.8,2.8-6.5,5.5c-0.8,1.5-2.2,2.5-3.9,2.6c-1.8,1.2-3.8,0.1-5.5,1.3
    c-1.5,1.1-3.6,1.7-5.1,2.8c-0.9,0.6-1.5,1.7-2.4,2.4c-1.1,0.9-2.4,0.7-3.6,1.4c-1.5,0.8-3.3,1.5-5,1l-2-1.1l0,0
    c-0.1,0.2-0.1,0.5-0.2,0.7c-0.4,1.1-1,2.1-1.6,3.1c-0.3,0.8-0.6,1.6-0.8,2.5c-0.4,1.3-1.3,2.1-0.9,3.5c0.6,2,1.2,2,2.4,3.5
    c0,0.6,1.1,1,0.6,1.9c-0.4,1-0.7,2.1-0.9,3.2c-0.7,1.3-1.9,2.2-3.2,2.8c-2.9,1.2-5.1,0.5-5.3,4c-0.1,1.2-1,1.5-2.1,1.3
    c-1.3-0.3-0.4,0.9-1.3,1.4L51,178.7c-1.7,1.1-4.2,1.7-4.8,3.8c-0.7,2.3-3.4,3.6-4.6,5.7c-1.6,1-3.1,2.2-4.3,3.6
    c-0.6,0.7-1.3,0.6-1.9,1.1c-1,0.9-1.9,1.9-2.7,3c-0.6,0.7-1.4,1.2-2.2,1.7c-1.3,0.7-3.1,2.8-4.3,3.9l-4,3.7l6.7,6.7l-1.1,1.3
    l0.9,1.1l-5.5,4.2c-0.4,1.1-1,2-1.4,3c-0.7,2-1.6,3.9-2.7,5.7c-0.8,1.2-1.7,2.3-2.7,3.3c-1.8,2,2.3,1.9,1.8,3.9
    c-0.4,1.5-2.3,4.1-3.2,5.5l4.1,1.8c2.3,1,3.4,3.3,5.9,4.2c1.2,0.5,1.2,1.5,2.1,2.2s2.3,1,2.8,1.7c0.6,0.3,1.1,1.1,0.5,1.7
    c-1.2,1.2-1.2,2.8-2.2,4c-0.9,1-2.2,1.1-2.2,2.9c0,1.2-0.9,1.9-1.7,2.8l0,0l1.6,2.5l5.4,3.4l0,0c0.1-0.1,0.2-0.3,0.4-0.4
    c0.2-0.2,0.4-0.5,0.6-0.8c0.1-0.3,0.7-0.8,0.9-1.2c0.4-0.5,0.8-1,1.2-1.6c0.6-0.9,1-1.9,1.3-2.9c0.4-0.9,0.6-1.8,0.8-2.7l0,0
    l-4.6-3.8l2.2-2L37.1,254.1L37.1,254.1z"/>
<path id="canton-valais" class="st1" d="M134.7,244.5l2.8,3.3c0.3,0.2,0.7,0.7,0.9,0.8c0.3,1.8-0.1,3.2,0.1,4.9
    c0.4,0.6,0.8,1.4,1,2.1c1.3,2.5,3.2,0.5,4.8,1.6s1.3,4.5,1.6,6.2c0.2,1.2-0.3,2,0.7,3s2.1,1.3,3.1,2.3c0.7,1.3,0.6,2.7,1.2,4
    c0.5,1,1.2,1.8,2,2.6c2.4,2.8,3.3,6.3,4.3,9.8c1.1,1.5,2.3,2.6,3.3,4.2s1.8,0.2,3.2-0.3c1.1-0.4,2.4-2.1,3.5-1.9
    c0.8,0.1,1,0.5,1.8,0l3.5-2.6c0.6-0.4,1.1-0.8,1.5-1.4c0.5-0.7,0.3-1.7,0.7-2.5c0.1-1.5,1-1,2-1.3c2.1-0.8,2.1-2.6,3.9-3.9
    c1.4-1,1.4-2.4,3-3.1s1.2-0.9,0.6-2.2c-0.7-1.6,2-0.8,0.7-3.1c-1.2-2,0.4-4,1.9-5.2l2.3-2.6l0,0c1.6,0.3,2.3,0.9,4,0.1
    c2-1,2.1-2,2.1-4.1c0-3.3,1.9-2.8,4.2-4c0.8-0.1,1.8,0.2,2.1-0.6c0.2-0.5,1.1-1.8,1.7-1.8c0.6,1-2.3,7.7,1.2,6.9
    c2.7-0.6,6.3-1.8,8.5-3.7s3.4-2.9,6.1-3.8c1.7-0.6,2.6-1.3,4.6-0.9c1.2,0.3,0.7,1.1,1.5,1.7c1.5,1,2.1-2.5,3.5-1.4
    c1,0.7-0.3,2.7,2.1,2.7c2.4,0.4,0.6-0.9,2-1.3s4,2.1,4.7-0.9c0.4-1.5,2.9-0.8,1.4-2.3c-0.8-0.9-2.3-1-3.2-2
    c-0.5-0.6,1.6-2.7,2.3-2.7c1.6,0.1,3.3-0.1,4.8-0.7c1.4-0.4,1.5,0.6,2.6,1.1c0.9,0.5,2.2-2.8,2.1-3.6c-0.2-1.9,0.6-1.5,1.9-2.7
    s0.9-1.3,2.5-0.4c3.8,2.1,6.9,2.6,10,5.7c2.5,1.3,1.6-0.6,3.4-1.4c2.6-1.1,5.2-2.2,7.3-4.4c1.5-1.6,2.8-3.8,5.1-4.3
    c2-0.4,3-1.6,4.4-2.9c1.6-1.4,4.4-0.3,6.6-1.3c2.4-1,5-0.9,6.4-3.5l1.4-2.5c0.4-0.8,1.3-0.1,2,0c0.5,0.1,2.2-1.7,3-2.1
    c2.6-1-2.2-3.4,0.6-4.9c3.7-1.9,4.9-6,9.7-4.4c1.5,0.5,3.5,2,5.1,1.4s4.5,0.9,6.1,1.2c1.5,1.5,3.1,2.1,4.8,3.4s3.3,0.4,5,0.4
    c0.5,1.8,0.6,2.8,2.7,2c3.2-1.3,6.8-0.5,10-1.5c4-1.2,5.7-3.2,8.7-5.6c0.7-1.6,1-1.3,2.7-1.3c1.9,0,2.5-1.9,3.5-3.2
    c0.7-0.9,0.5-2.4,0.3-3.6c-0.4-2.2,2.7-4.2,1.7-6.2c-1.2-2.5,1.9-3,3-5l2.9-2.7l0,0c0.4,0.1,0.5,0.4,0.9,0.6s1.1,0.4,1.1,0.9
    c-0.1,0.8-0.3,1.6-0.6,2.4c0,0.8,0.2,1.6,0.5,2.3c0,0.6,0,1.1-0.1,1.7c-0.2,1-0.9,1.6-1.2,2.5c-0.4,1.2-0.6,2.5-0.8,3.8
    c-0.3,1.9,1,3.4,1.7,5c1.1,2.6,0.5,4.7,3.3,6.2c0.6,0.3,0.8,0.7,1.5,0.8c2.1,0.4,2.5,0.5,3.8,2.1l0,0l-0.9,1.9c-1,1-2.4,1.9-3.1,3.1
    c-0.8,1.4-1.3,1.3-2.8,1.7l-2.4,0.6c-0.7,0.2-2.5-0.9-3-0.6s0.3,2.4-0.8,3.2c-0.6,0.4,0.1,1.5,0.2,2.1c0.2,0.9-0.5,1.5-0.9,2.3
    l-0.3,1.9l0,0c-1.3,0.1-2.6,0.6-3.5,1.5l-4.7,3.7c-1.9,1.5-1.9-0.2-3.6,1.8c-1,1.4-2.7,2.2-0.7,3.4c0.9,0.5,2.6,0.4,2.4,1.8
    c-0.1,1,0.4,1.9,0.1,2.9c-0.5,1.7-2.3,1.7-3.3,2.8c-0.6,0.6-0.8,1.5-1.8,1.4c-0.8,0-1.2-0.8-1.8-0.5c-1,0.4-1.1,1.8-0.7,2.7
    c0.8,2.1-4.7,2.8-5.8,4.2c-0.5,2-2,5.3-3.6,6.6c-0.9,0.8-4.9,2.4-6,2.3s-2.7-2.2-3.4-1.9c-2,0.8-2.3,3.2-3.7,4.4
    c-1.3,1-3.5,3.8-5.1,4.1c-0.4,0.8,1.4,2.6,2,3.1c1.9,0.3,2.3-0.3,2.9,1.5c0.1,0.3,0.5,0.5,0.6,0.9c0.6,1.4,1.5,2.6,2.6,3.6
    c0.7,0.8,0.2,1.7,1,2.5c1.1,0.9,1.7,2.3,1.5,3.7c-0.1,0.9,0.7,1.3,1.2,1.8c0.8,0.9,1.3,0.7,0.5,2.1c-0.4,0.9-0.9,1.7-1.5,2.5
    c-0.5,0.4-0.6,1.1-0.3,1.7c0.3,0.9,1.6,1.8,0.9,2.8c-2,3.1-5.8,0.5-6.5,5c-0.4,2.2-2.3,2.7-4.3,2.4c-2.2,0.5-4.3,1.3-6.3,2.2
    c-1.7,0.9-1.5,1.3-1.6,2.9c0,0.8-1.1,1.4-1.3,2.1c-0.5,1.6-0.3,3.3,0.4,4.8c1.1,2.3,1.4,2.3-0.6,3.5c-1.8,1.1-1.2,2.8-1.4,4.5
    s-1.1,0.9-1.9,1.7c-0.3,0.5-1.7,3.1-2.1,3.1c-1.2,0-1.5-1-2.7-0.8l-8.7,0.8c-1.1,0.1-1.5,2.1-2.1,2.9c-0.9,1.3-3.5,1.6-3.3,3.3
    c0.3,2.8,0.3,4.5-1.3,7c-0.6,1,1.4,1.6,1.1,2.5c-1,2.4-2.4,0.1-3.8,0.6c-2.4-0.2-3.4-2.5-5.6-0.5s-3.8,0.2-4.8-2
    c-0.4-0.9-2.8-1.6-3.8-1.8c-2.5-0.6-2.2,5.3-5,3.6s-1-6.1-3.1-6.8c-1.7-0.6-2.9,0.9-3.5-1.8c-0.5-2.3-1.7-2.1-3.5-2.4
    c-1.3,1.1-3,0.9-4.6,0.6s-2.8,0.7-4.4,0.4c-3.3-0.6-0.8-4.6-4.4-4c-1.6,0.2-3.6,1.6-3.2,3.3c0.6,2.8,0,4.6-3,3.1
    c-2.2-1.1-1.3,0.4-2.8,0.4c-0.6,0-0.3-1.1-0.6-1.1c-0.8-0.1-3.4,2.5-4.3,2.9c0,1.5,0.8,3.8-1.7,3.4c-1.2-0.3-2.6,0-3.5,0.9
    c-1.6,1.4-3.2,4.3-5.1,4.3c-1.5,0-1.7,4.4-4.1,2c-0.7-0.7-1.6-0.2-2.4-0.9c-0.7-0.7-1.5-1.4-2.3-2c-1.3-0.9-1.6,1.1-3.1,1
    c-0.8,0-0.7-1.1-1.3-1.5s-1.8-0.3-2.6-0.9c-1.7-1.2-3,3.4-3.9,4.5c-0.6,0.8-3.9,4.3-3.9,1.5c-0.8-0.5-2,1.5-3.1,0.4
    c-0.8-0.8-2.1,1.5-2.6,1.9c-2.1,1.5-1,6.2-4.1,3.7l-3.8-3.1c-1.6-1.3-4.8,4.2-6.8,4.2s-2-1.4-2.9-2.8c-0.4-0.9-0.5-1.5-1.3-2.1
    c-0.6-0.6-1.1-0.8-1.2-1.7c-0.3-1.7-2.2-1.1-2.2-3.2c0-1.5-0.4-1.6-1.6-2.3c-0.6-0.3-0.7-1-1.4-1.2l0,0l-0.4-2.4
    c-0.4-0.9-0.2-4.4-0.7-4.8c-1.2-0.8-4-0.6-4.1-2.9c-0.1-1.7,1.8-1.2,2.1-2.2c0.3-0.7-1.9-2.8-2.2-3.7c-0.6-1.6-3.7-0.4-3.3-3.4
    c-0.3-1.3-1.1-2.5-2.3-3.3c-1.1-0.8-1.1-2.4-2-3.2c-0.7-0.7-1.7-1.1-2.2-2s-0.8-1.9-0.9-3c-2.4,0-5.6,6.6-8.3,4.1
    c-3.5-3.4,2.8-6,1.1-9.1c-0.6-0.7-0.6-1.9,0.2-2.5l0.1-0.1c0.8-1.5,1.3-3.9,0.6-5.3c-1.1-0.2-2.1,0.7-3,0.2
    c-1.3-0.7-2.3-0.4-3.7-0.8c-0.8-0.2-1.5-1.2-2.3-1.2c-1.6,0-2.1,1.1-3.5,0.1c-1.9-1.3-2.2-0.1-2.4-3c-0.1-1.4-1.2-3.5,0.4-4.6
    c3-2,1.4-4.7,1.5-7.4c-0.1-1.1,0.1-2.3,0.7-3.3c0.5-1,1.4-1.6,1.4-2.7c0-0.6-0.3-1.4,0.5-1.4c1.1,0,1.5-1.1,2-1.8
    c0.7-1.4,0.4-1.6,2-2.3c1-0.4,0.9-3.2,1.7-4.2c1.7-2.1-1.3-3.8-2.9-4.3c-1.9-1.2-1.7-2.9-2.8-4.4c-0.9-1.1-3.2-1.4-3.7-2.4
    s0.5-1.7-0.9-1.9s-1.6-1.1-2.1-2.4s-1.5-2.1-1.4-3.4s3-2.6,4-3.4c1.4-1.1,1.2-1.1,0.7-2.7l0.6-1.8l0,0c1.3,1.1,3.1,1.7,4.8,1.6
    c0.9,0.1,1.8,0,2.7-0.1C135.4,246.2,134.3,245.1,134.7,244.5L134.7,244.5z"/>
<path id="canton-geneve" class="st1" d="M32.4,255.8c-0.1-0.1-0.1-0.1-0.1-0.2c-0.3-0.3-0.8-0.3-1.2-0.1c-0.4,0.2-0.8,1.4-0.1,1.4
    c0.4,0,0.7-0.2,1.1-0.2c0.2,0,0.3,0,0.5-0.1C32.9,256.3,32.6,256,32.4,255.8L32.4,255.8z M24.2,261.1c-0.5,0.5-0.9,1.1-1.1,1.8
    c0.1,0.9,0.2,1.7,0.3,2.6c0,1-1.2,2.3-1.9,2.9c-1,1.9,0.4,1.9,0,3.5c-0.3,1.2,0.7,1.3,1.4,2s1.9,2.3,1.1,2.8c-0.6,0.5-2.7,3-3.3,3
    h-0.1c-0.6-0.7-1.7-2.3-2.7-1.9c-0.5,0.3-1,0.5-1.6,0.7c-0.8,0.2-0.9-0.8-1.4-0.8c-0.1-0.2-0.7,0.5-0.7,0.6
    c-0.6,0.9-1.5,1.8-2.4,2.4c-0.8,0.1-1-0.8-1.7-0.8c-1.1,0.1-2.1,0.5-3,1c-0.4,0.3-0.1,1.1-1,1.5c-0.5,0.4-1.2,0.5-1.8,0.5
    c-0.6,0.4-1.1,0.8-1.6,1.3c-1,0.8-2,1.6-1.4,3c0.3,0.7,0.8,1.3,1.5,1.6c0.9,0.5,2,3.2,2.7,3.9c-1-0.1-1.7-0.8-1.7,1.1l0,0
    c-0.3-0.1-1.5-1.4-1.4,0.5c0,1.1-0.3,2.2-0.9,3.1c-0.5,0.7-1,1.5-1.3,2.4c-0.1,0.5-0.1,1.1,0,1.6c0,0.1-0.1,0.1,0.1,0.1l3.9-1.1
    c1.2-0.5,2.9-0.3,4.2-0.5s2.9,2.9,4.2,0c1-2.1,1.4-1.4,3.6-1.4c1.2,0,3.3-0.4,4.2,0.5c4.3,4.3,6.7-0.5,10.6-2
    c1.4-0.9,1.7-0.4,2.3-2.1c0.3-0.9-0.1-1.6,0.1-2.4c1-1.2,2.1-2.3,3.3-3.3c0.9-0.7,2-2,3-2.4s1.5,0,2.5-0.2s2.7-1.6,3.7-2.1
    c1.5-0.8,2.9-1.7,4.1-2.9c2-2.4,1.8-3.4,1-6.2c-0.2-0.5,0-1.6-0.6-1.9c-0.8-0.3-2.7,2.8-4,3s-3.2-4.1-4-5c-0.6-0.7-1.8-2-0.5-2.6
    c1.5-0.7,1.1-2.8,0.6-4.2l0,0c-0.2,0.1-0.4,0.1-0.6,0.1c-0.1,0.7-0.2,1.3-0.3,2c-0.3,0.9-1.3,1.3-1.8,2c-0.9,1.1-1.7,4.6-3.3,4.6
    s-1.4,0.2-1.4,1.8c0,1.2-0.3,4.3-1.1,5.3c-0.6,1.5-2.3,4.1-3.7,4.7c-0.6,0.3-1.1,0.6-1.6,0.9c-1,0.6-0.9,0.8-0.9-0.2
    c0.2-0.1,0.2-1.6,0.4-1.8c-0.6-1,0.1-4.8,0.1-5.9c0.1-1.9,1-3.7,2.5-4.9c0.3-0.2,0.2-0.8,0.4-1.2c0.5-1.3-0.4-1.8-0.3-2.9
    c0-0.5,1.3-1.3,0.3-1.5c0-0.3,0-0.5,0.1-0.8l0,0l-5.4-3.4L24.2,261.1L24.2,261.1z M36.3,257.4L36.3,257.4l-4.6-3.8l2.2-2l3.2,2.6
    l0,0c-0.5,0.8-0.8,1.8-0.8,2.8V257.4z"/>
<path id="lac-neuchatel" class="st2" d="M160.5,110.9c-1.5-0.2-1.9,0.5-3.1,0.5s-1.7-1.4-2.4-1.6c-2.4-0.7-3.6,1.1-4.9,2.5
    c-1.1,0.8-2.4,1.5-3.7,1.9c-0.8,0.2-1.7-0.4-2.4,0.1s-1.2,1.7-2,2c-1,0.4-2.1,0.2-3.1,0.6c-2.2,0.8-1.2,1.8-1.8,3.2
    c0.5,1.6-0.1,4.5-2,4.9c-1.5,0.3-3.7,0.9-3,3c0.3,0.8-1.2,0.4-1.8,0.5c-2.2,0.6-2.4,1.5-3.7,2.9c-0.8,0.9-3.5,4.7-4.6,4.7
    c-0.6,0-0.7,0.8-1.2,1.1c-0.7,1.8-0.9,3.5-2,5c-1,1.3-3.1,1.8-4.4,2.8c-1,0.8-1.2,1.8-2,2.6c-1.3,1.3-2.9,1.5-3.9,3.1
    c-0.8,1.3-0.5,1.1-2.1,1.4c-1.1,0.4-2.1,1-2.9,1.8c-2,2.1-2.6,2.8-0.1,5h0.5c0.3,0.9,3.1-0.3,3.4-0.5c2.8-1.5,5.2-4,8.6-3.9
    c1.9,0.1,3.1,1.7,4.8,0.1c2.1-2,4.3-5.7,6.7-7.1c1.3-0.8,3-0.1,4-1.6s2.5-2.2,3.5-3.4c1.5-0.5,3.5-3.8,4.6-5.1
    c0.8-0.9,1.3-2.1,2.4-2.7c2.5-1.1,4.6-2.8,6.4-4.8c0.3-0.3,1.1-1.9,1.2-1.8c0.8,0.4,2.9-1.7,3.3-2.4c1.1-1.4,0.5-1.9,2.2-2.8
    c0.8-0.4,1.5-0.9,2.1-1.5c1-0.9,2.5-0.8,3.2-2.3c0.6-1.3,1.4-2.4,2-3.8c0.2-0.1,1-0.4,1.1-0.6s-0.4-1.1-0.5-1.3
    c-0.5-0.7-0.9-1.4-1.4-2.1L160.5,110.9z"/>
<g id="marker-Genève" transform="translate(28, 286)">
    <circle id="ville-Genève" cx="0" cy="0" r="3"/>
    <text id="ville-Genève_1_" transform="matrix(1 0 0 1 -21.0146 10)" class="st3 st4">Genève</text>
    <text transform="matrix(1 0 0 1 -3.3369 -8)" class="st5 st3 st4">b</text>
</g>
<g id="marker-Lausanne" transform="translate(99, 218)">
    <circle id="ville-Lausanne" cx="0" cy="0" r="3"/>
    <text id="ville-Lausanne_1_" transform="matrix(1 0 0 1 -26.3584 10)" class="st3 st4">Lausanne</text>
    <text transform="matrix(1 0 0 1 -3.3369 -8)" class="st5 st3 st4">b</text>
</g>
<g id="marker-La_Chaux-de-Fonds" transform="translate(129, 88)" class="st6">
    <circle id="ville-La_Chaux-de-Fonds" class="st7" cx="0" cy="0" r="3"/>
    <text id="ville-La_Chaux-de-Fonds_1_" transform="matrix(1 0 0 1 -53.0303 10)" class="st7 st3 st4">La Chaux-de-Fonds</text>
    <text transform="matrix(1 0 0 1 -3.3369 -8)" class="st7 st3 st4">b</text>
</g>
<g id="marker-Fribourg" transform="translate(185, 151)" class="st6">
    <circle id="ville-Fribourg" class="st7" cx="0" cy="0" r="3"/>
    <text id="ville-Fribourg_1_" transform="matrix(1 0 0 1 -22.3418 10)" class="st7 st3 st4">Fribourg</text>
    <text transform="matrix(1 0 0 1 -3.3369 -8)" class="st7 st3 st4">b</text>
</g>
<g id="marker-Delémont" transform="translate(209, 30)" class="st6">
    <circle id="ville-Delémont" class="st7" cx="0" cy="0" r="3"/>
    <text id="ville-Delémont_1_" transform="matrix(1 0 0 1 -25.6787 10)" class="st7 st3 st4">Delémont</text>
    <text transform="matrix(1 0 0 1 -3.3369 -8)" class="st7 st3 st4">b</text>
</g>
<g id="marker-Sion" transform="translate(210, 285)" class="st6">
    <circle id="ville-Sion" class="st7" cx="0" cy="0" r="3"/>
    <text id="ville-Sion_1_" transform="matrix(1 0 0 1 -12.0088 10)" class="st7 st3 st4">Sion</text>
    <text transform="matrix(1 0 0 1 -3.3369 -8)" class="st7 st3 st4">b</text>
</g>
<g id="marker-Martigny" transform="translate(167, 300)" class="st6">
    <circle id="ville-Martigny" class="st7" cx="0" cy="0" r="3"/>
    <text id="ville-Martigny_1_" transform="matrix(1 0 0 1 -23.0068 10)" class="st7 st3 st4">Martigny</text>
    <text transform="matrix(1 0 0 1 -3.3369 -8)" class="st7 st3 st4">b</text>
</g>
<g id="marker-Yverdon-les-Bains" transform="translate(104, 159)" class="st6">
    <circle id="ville-Yverdon-les-Bains" class="st7" cx="0" cy="0" r="3"/>
    <text id="ville-Yverdon-les-Bains_1_" transform="matrix(1 0 0 1 -48.6914 10)" class="st7 st3 st4">Yverdon-les-Bains</text>
    <text transform="matrix(1 0 0 1 -3.3369 -8)" class="st7 st3 st4">b</text>
</g>
<g id="marker-Montreux" transform="translate(142, 236)">
    <circle id="ville-Montreux" class="st8" cx="-0.1" cy="-0.1" r="3"/>
    <text id="ville-Montreux_1_" transform="matrix(1 0 0 1 -25.0107 9.9209)" class="st9 st4">Montreux</text>
    <text transform="matrix(1 0 0 1 -3.3833 -8.041)" class="st10 st3 st11">b</text>
    <path id="sun" class="st12" d="M-0.3-38.2C-1-38.2-1.5-37.6-1.4-37v2.5c0,0.7,0.5,1.3,1.2,1.3c0.7,0,1.3-0.5,1.3-1.2c0,0,0,0,0,0
        V-37c0-0.7-0.6-1.3-1.2-1.3C-0.2-38.2-0.3-38.2-0.3-38.2z M-10.3-34.2c-0.7,0.1-1.1,0.8-1,1.5c0,0.3,0.2,0.5,0.4,0.7l1.8,1.8
        c0.4,0.5,1.2,0.6,1.8,0.2s0.6-1.2,0.2-1.8c-0.1-0.1-0.1-0.1-0.2-0.2l-1.8-1.8c-0.2-0.2-0.6-0.4-0.9-0.4c0,0-0.1,0-0.1,0
        C-10.2-34.2-10.2-34.2-10.3-34.2z M9.5-34.2c-0.3,0-0.6,0.2-0.7,0.4L7-32.1c-0.5,0.4-0.6,1.2-0.2,1.8c0.4,0.5,1.2,0.6,1.8,0.2
        c0.1-0.1,0.1-0.1,0.2-0.2l1.8-1.8c0.5-0.5,0.5-1.3,0-1.8c-0.2-0.3-0.6-0.4-0.9-0.4C9.6-34.2,9.5-34.2,9.5-34.2z M-0.2-31.9
        C-5-31.9-9-28-9-23.1s4,8.8,8.8,8.8s8.8-4,8.8-8.8S4.7-31.9-0.2-31.9z M-0.2-29.4c3.5,0,6.3,2.8,6.3,6.3s-2.8,6.3-6.3,6.3
        s-6.3-2.8-6.3-6.3S-3.7-29.4-0.2-29.4z M-14.3-24.4c-0.7,0.1-1.2,0.7-1.1,1.4s0.7,1.2,1.4,1.1h2.5c0.7,0,1.3-0.5,1.3-1.2
        c0-0.7-0.5-1.3-1.2-1.3c0,0,0,0,0,0H-14c0,0-0.1,0-0.1,0C-14.2-24.4-14.2-24.4-14.3-24.4z M10.9-24.4c-0.7,0.1-1.2,0.7-1.1,1.4
        s0.7,1.2,1.4,1.1h2.5c0.7,0,1.3-0.5,1.3-1.2c0-0.7-0.5-1.3-1.2-1.3c0,0,0,0,0,0h-2.5c0,0-0.1,0-0.1,0C11-24.4,10.9-24.4,10.9-24.4z
         M-8.4-16.3c-0.3,0-0.5,0.2-0.7,0.4l-1.8,1.7c-0.5,0.5-0.5,1.3,0,1.8s1.3,0.5,1.8,0l1.8-1.8c0.5-0.5,0.5-1.3,0.1-1.8
        C-7.6-16.2-8-16.4-8.4-16.3z M7.6-16.3c-0.7,0.1-1.1,0.8-1,1.5c0,0.3,0.2,0.5,0.4,0.7l1.8,1.8c0.5,0.5,1.3,0.5,1.8,0s0.5-1.3,0-1.8
        l-1.8-1.7c-0.3-0.3-0.6-0.4-1-0.4C7.7-16.3,7.6-16.3,7.6-16.3z M-0.3-13C-1-13-1.5-12.4-1.4-11.8v2.5C-1.5-8.6-0.9-8-0.2-8
        c0.7,0,1.3-0.5,1.3-1.2c0,0,0,0,0,0v-2.5c0-0.7-0.6-1.3-1.2-1.3C-0.2-13.1-0.3-13.1-0.3-13z"/>
</g>
<path id="sun_2_" class="st12" d="M98.9,178.8c-0.6,0.1-1.1,0.6-1.1,1.3v2.5c0,0.7,0.5,1.3,1.2,1.3c0.7,0,1.3-0.5,1.3-1.2
    c0,0,0,0,0,0v-2.5c0-0.7-0.6-1.3-1.2-1.3C99,178.8,99,178.8,98.9,178.8z M89,182.8c-0.7,0.1-1.1,0.8-1,1.5c0,0.3,0.2,0.5,0.4,0.7
    l1.8,1.8c0.4,0.5,1.2,0.6,1.8,0.2c0.5-0.4,0.6-1.2,0.2-1.8c-0.1-0.1-0.1-0.1-0.2-0.2l-1.8-1.8c-0.2-0.2-0.6-0.4-0.9-0.4
    c0,0-0.1,0-0.1,0C89.1,182.8,89,182.8,89,182.8z M108.7,182.8c-0.3,0-0.6,0.2-0.7,0.4l-1.8,1.8c-0.5,0.4-0.6,1.2-0.2,1.8
    c0.4,0.5,1.2,0.6,1.8,0.2c0.1-0.1,0.1-0.1,0.2-0.2l1.8-1.8c0.5-0.5,0.5-1.3,0-1.8c-0.2-0.3-0.6-0.4-0.9-0.4
    C108.8,182.8,108.8,182.8,108.7,182.8z M99.1,185.1c-4.8,0-8.8,4-8.8,8.8s4,8.8,8.8,8.8c4.8,0,8.8-4,8.8-8.8S103.9,185.1,99.1,185.1
    z M99.1,187.6c3.5,0,6.3,2.8,6.3,6.3c0,3.5-2.8,6.3-6.3,6.3s-6.3-2.8-6.3-6.3C92.8,190.5,95.6,187.6,99.1,187.6z M85,192.7
    c-0.7,0.1-1.2,0.7-1.1,1.4c0.1,0.7,0.7,1.2,1.4,1.1h2.5c0.7,0,1.3-0.5,1.3-1.2c0-0.7-0.5-1.3-1.2-1.3c0,0,0,0,0,0h-2.5
    c0,0-0.1,0-0.1,0C85,192.7,85,192.7,85,192.7z M110.1,192.7c-0.7,0.1-1.2,0.7-1.1,1.4c0.1,0.7,0.7,1.2,1.4,1.1h2.5
    c0.7,0,1.3-0.5,1.3-1.2c0-0.7-0.5-1.3-1.2-1.3c0,0,0,0,0,0h-2.5c0,0-0.1,0-0.1,0C110.2,192.7,110.2,192.7,110.1,192.7z M90.8,200.7
    c-0.3,0-0.5,0.2-0.7,0.4l-1.8,1.7c-0.5,0.5-0.5,1.3,0,1.8s1.3,0.5,1.8,0l1.8-1.8c0.5-0.5,0.5-1.3,0.1-1.8
    C91.7,200.8,91.2,200.7,90.8,200.7z M106.8,200.7c-0.7,0.1-1.1,0.8-1,1.5c0,0.3,0.2,0.5,0.4,0.7l1.8,1.8c0.5,0.5,1.3,0.5,1.8,0
    s0.5-1.3,0-1.8l-1.8-1.7c-0.3-0.3-0.6-0.4-1-0.4C106.9,200.7,106.9,200.7,106.8,200.7z M98.9,204c-0.6,0.1-1.1,0.6-1.1,1.3v2.5
    c0,0.7,0.5,1.3,1.2,1.3c0.7,0,1.3-0.5,1.3-1.2c0,0,0,0,0,0v-2.5c0-0.7-0.6-1.3-1.2-1.3C99,204,99,204,98.9,204z"/>
<path class="st12" d="M26.1,257.4c-4.4,0-8,3.6-8,8c0,0.1,0,0.3,0,0.4c0,0,0,0,0,0c-3.3,0-6.1,2.7-6.1,6.1c0,3.3,2.7,6.1,6.1,6.1
    h18.2c4.2,0,7.6-3.4,7.6-7.6c0-4.2-3.4-7.6-7.6-7.6c-1,0-1.8,0.2-2.7,0.5C32.7,259.9,29.8,257.4,26.1,257.4z M26.1,258.9
    c3.2,0,5.9,2.4,6.4,5.4l0.2,1l0.9-0.5c0.8-0.4,1.8-0.7,2.8-0.7c3.4,0,6.1,2.7,6.1,6.1c0,3.4-2.7,6.1-6.1,6.1H18.1
    c-2.5,0-4.6-2-4.6-4.6c0-2.5,2-4.6,4.6-4.6c0.2,0,0.5,0,0.7,0.1l1.1,0.2l-0.2-1c-0.1-0.4-0.1-0.7-0.1-1.1
    C19.6,261.8,22.5,258.9,26.1,258.9z"/>
</svg>

